<svg width="130" height="27" viewBox="0 0 130 27" fill="none" xmlns="http://www.w3.org/2000/svg">
<path d="M10.296 6.584C12.1947 6.584 13.944 7.07467 15.544 8.056C17.1653 9.016 18.4133 10.296 19.288 11.896H15.064C13.7413 10.616 12.152 9.976 10.296 9.976C8.41867 9.976 6.81867 10.648 5.496 11.992C4.17333 13.3147 3.512 14.9147 3.512 16.792C3.512 18.6693 4.17333 20.2693 5.496 21.592C6.81867 22.9147 8.41867 23.576 10.296 23.576C11.4053 23.576 12.44 23.3307 13.4 22.84C14.36 22.3493 15.1493 21.6773 15.768 20.824H19.672C18.8827 22.6587 17.6347 24.152 15.928 25.304C14.2427 26.4347 12.3653 27 10.296 27C7.48 27 5.08 26.008 3.096 24.024C1.112 22.0187 0.12 19.608 0.12 16.792C0.12 13.976 1.112 11.576 3.096 9.592C5.08 7.58667 7.48 6.584 10.296 6.584ZM22.2535 9.592C24.2588 7.58667 26.6695 6.584 29.4855 6.584C32.3015 6.584 34.7015 7.58667 36.6855 9.592C38.6908 11.576 39.6935 13.976 39.6935 16.792C39.6935 17.3253 39.6402 17.8907 39.5335 18.488H22.8935C23.2775 19.9813 24.0775 21.208 25.2935 22.168C26.5095 23.1067 27.9068 23.576 29.4855 23.576C31.4695 23.576 33.1228 22.8613 34.4455 21.432H38.5735C37.7202 23.1173 36.4722 24.472 34.8295 25.496C33.2082 26.4987 31.4268 27 29.4855 27C26.6695 27 24.2588 26.008 22.2535 24.024C20.2695 22.0187 19.2775 19.608 19.2775 16.792C19.2775 13.976 20.2695 11.576 22.2535 9.592ZM22.8935 15.096H36.0775C35.7148 13.6027 34.9148 12.376 33.6775 11.416C32.4615 10.456 31.0642 9.976 29.4855 9.976C27.9068 9.976 26.4988 10.456 25.2615 11.416C24.0455 12.376 23.2562 13.6027 22.8935 15.096ZM40.749 16.792C40.749 13.976 41.741 11.576 43.725 9.592C45.709 7.58667 48.109 6.584 50.925 6.584V9.976C49.0477 9.976 47.4477 10.648 46.125 11.992C44.8023 13.3147 44.141 14.9147 44.141 16.792V27H40.749V16.792ZM51.9065 16.792V0.919998H55.2985V9.176C57.2612 7.448 59.5332 6.584 62.1145 6.584C64.9305 6.584 67.3305 7.58667 69.3145 9.592C71.3198 11.576 72.3225 13.976 72.3225 16.792C72.3225 19.608 71.3198 22.0187 69.3145 24.024C67.3305 26.008 64.9305 27 62.1145 27C59.2985 27 56.8878 26.008 54.8825 24.024C52.8985 22.0187 51.9065 19.608 51.9065 16.792ZM57.2825 21.624C58.6265 22.9467 60.2372 23.608 62.1145 23.608C63.9918 23.608 65.5918 22.9467 66.9145 21.624C68.2372 20.28 68.8985 18.6693 68.8985 16.792C68.8985 14.9147 68.2372 13.3147 66.9145 11.992C65.5918 10.6693 63.9918 10.008 62.1145 10.008C60.2372 10.008 58.6265 10.6693 57.2825 11.992C55.9598 13.3147 55.2985 14.9147 55.2985 16.792C55.2985 18.6907 55.9598 20.3013 57.2825 21.624ZM75.6947 9.592C77.7001 7.58667 80.1107 6.584 82.9267 6.584C85.7427 6.584 88.1427 7.58667 90.1267 9.592C92.1321 11.576 93.1347 13.976 93.1347 16.792C93.1347 17.3253 93.0814 17.8907 92.9747 18.488H76.3347C76.7187 19.9813 77.5187 21.208 78.7347 22.168C79.9507 23.1067 81.3481 23.576 82.9267 23.576C84.9107 23.576 86.5641 22.8613 87.8867 21.432H92.0147C91.1614 23.1173 89.9134 24.472 88.2707 25.496C86.6494 26.4987 84.8681 27 82.9267 27C80.1107 27 77.7001 26.008 75.6947 24.024C73.7107 22.0187 72.7187 19.608 72.7187 16.792C72.7187 13.976 73.7107 11.576 75.6947 9.592ZM76.3347 15.096H89.5187C89.1561 13.6027 88.3561 12.376 87.1187 11.416C85.9027 10.456 84.5054 9.976 82.9267 9.976C81.3481 9.976 79.9401 10.456 78.7027 11.416C77.4867 12.376 76.6974 13.6027 76.3347 15.096ZM94.1902 16.792C94.1902 13.976 95.1822 11.576 97.1662 9.592C99.1502 7.58667 101.55 6.584 104.366 6.584V9.976C102.489 9.976 100.889 10.648 99.5662 11.992C98.2436 13.3147 97.5822 14.9147 97.5822 16.792V27H94.1902V16.792Z" fill="#FFFDFF"/>
<path d="M124.232 16.792V27H120.84V24.376C118.92 26.1253 116.648 27 114.024 27C111.208 27 108.797 26.008 106.792 24.024C104.808 22.0187 103.816 19.608 103.816 16.792C103.816 13.976 104.808 11.576 106.792 9.592C108.797 7.58667 111.208 6.584 114.024 6.584C116.84 6.584 119.24 7.58667 121.224 9.592C123.229 11.576 124.232 13.976 124.232 16.792ZM114.024 9.976C112.146 9.976 110.546 10.648 109.224 11.992C107.901 13.3147 107.24 14.9147 107.24 16.792C107.24 18.6693 107.901 20.2693 109.224 21.592C110.546 22.9147 112.146 23.576 114.024 23.576C115.901 23.576 117.501 22.9147 118.824 21.592C120.168 20.2693 120.84 18.6693 120.84 16.792C120.84 14.8933 120.178 13.2827 118.856 11.96C117.533 10.6373 115.922 9.976 114.024 9.976ZM126.288 6.584L129.68 6.584V27H126.288V6.584ZM126.768 1.432C127.109 1.09067 127.515 0.919998 127.984 0.919998C128.453 0.919998 128.848 1.09067 129.168 1.432C129.509 1.752 129.68 2.14667 129.68 2.616C129.68 3.08533 129.509 3.49067 129.168 3.832C128.848 4.152 128.453 4.312 127.984 4.312C127.515 4.312 127.109 4.152 126.768 3.832C126.448 3.49067 126.288 3.08533 126.288 2.616C126.288 2.14667 126.448 1.752 126.768 1.432Z" fill="#0062FF"/>
</svg>