<svg xmlns="http://www.w3.org/2000/svg" xmlns:xlink="http://www.w3.org/1999/xlink" viewBox="0 0 1300 267.60503">
  <defs>
    <linearGradient id="linear-gradient" x1="-6.61502" y1="170.70962" x2="336.13427" y2="170.70962" gradientUnits="userSpaceOnUse">
      <stop offset="0" stop-color="#00a995"/>
      <stop offset="0" stop-color="#08ffff"/>
      <stop offset="1" stop-color="#fff"/>
    </linearGradient>
    <linearGradient id="linear-gradient-2" x1="-6.61107" y1="68.39318" x2="336.13244" y2="68.39318" xlink:href="#linear-gradient"/>
    <linearGradient id="White_Black" data-name="White, Black" x1="251.53065" y1="93.12171" x2="318.10461" y2="93.12171" gradientUnits="userSpaceOnUse">
      <stop offset="0" stop-color="#fff"/>
      <stop offset="1" stop-color="#231f20"/>
    </linearGradient>
    <linearGradient id="linear-gradient-3" x1="-6.6183" y1="109.60736" x2="336.1336" y2="109.60736" xlink:href="#linear-gradient"/>
  </defs>
  <g style="isolation: isolate">
    <g id="Layer_1" data-name="Layer 1">
      <g>
        <g>
          <path d="M484.91957,100.87289H415.39491V83.41168h69.52466Zm-69.52466,21.90543h60.79473v17.45977h-43.335v46.35023H415.39491Z" transform="translate(0 -1.19749)" fill="#fff"/>
          <path d="M588.25213,169.1272v17.46112H525.39384V83.41168h17.45977V169.1272Z" transform="translate(0 -1.19749)" fill="#fff"/>
          <path d="M717.14112,186.58832H698.0937l-9.04848-20.79368h-52.858l-9.04714,20.79368H608.09122L652.85389,83.41168h19.52466Zm-35.55539-38.2548-18.89016-43.49221-18.88882,43.49221Z" transform="translate(0 -1.19749)" fill="#fff"/>
          <path d="M868.25429,83.41168,835.87267,186.58832H815.39629L793.49086,115.9519l-21.90543,70.63642H751.109L718.72743,83.41168h18.25432l24.44479,77.30289,23.81029-77.30289h16.50806l23.81029,77.30289L850,83.41168Z" transform="translate(0 -1.19749)" fill="#fff"/>
          <path d="M961.27059,169.1272v17.46112H898.41231V83.41168h17.45987V169.1272Z" transform="translate(0 -1.19749)" fill="#fff"/>
          <path d="M1011.2679,100.87289V129.762h48.57238v17.46111H1011.2679V169.1272h57.30222v17.46112h-74.762V83.41168h74.762v17.46121Z" transform="translate(0 -1.19749)" fill="#fff"/>
          <path d="M1111.74513,186.58832V169.1272h42.38047c6.03187,0,12.69969-3.49117,12.69969-10.95209,0-6.825-5.71467-9.52438-22.53994-14.2859-15.23905-4.28562-36.03273-10.00029-36.03273-32.06432,0-16.19076,13.01556-28.41321,30.15946-28.41321h42.38181v17.46121h-42.38181c-6.19047,0-12.69968,3.49251-12.69968,10.952,0,7.46092,5.71466,10.31759,23.17587,15.23905,14.92041,4.127,35.39679,9.84168,35.39679,31.11117,0,16.19086-13.01555,28.41321-30.15946,28.41321Z" transform="translate(0 -1.19749)" fill="#fff"/>
          <path d="M1227.46007,186.58832V169.1272h42.38047c6.03187,0,12.69969-3.49117,12.69969-10.95209,0-6.825-5.71467-9.52438-22.53994-14.2859-15.239-4.28562-36.03273-10.00029-36.03273-32.06432,0-16.19076,13.01555-28.41321,30.15946-28.41321h42.38181v17.46121H1254.127c-6.19057,0-12.69969,3.49251-12.69969,10.952,0,7.46092,5.71467,10.31759,23.17579,15.23905C1279.52353,131.191,1300,136.90562,1300,158.17511c0,16.19086-13.01555,28.41321-30.15946,28.41321Z" transform="translate(0 -1.19749)" fill="#fff"/>
        </g>
        <g>
          <polygon points="152.556 111.984 114.022 147.993 169.825 203.782 206.253 240.21 204.376 242.087 178.858 267.605 59.246 147.993 135.544 74.206 233.648 74.003 324.839 73.814 327.188 112.47 233.729 112.213 152.556 111.984" fill="url(#linear-gradient)"/>
          <polygon points="70.333 19.528 97.73 46.91 27.398 117.258 0 89.861 70.333 19.528" fill="url(#linear-gradient-2)"/>
          <polygon points="298.632 93.135 279.432 112.335 233.729 112.213 252.793 93.135 233.648 74.003 279.392 73.909 281.917 76.434 298.632 93.135" fill="url(#White_Black)" style="mix-blend-mode: multiply"/>
          <polygon points="353.409 93.135 227.329 219.215 227.289 219.174 199.934 191.833 279.432 112.335 298.632 93.135 281.917 76.434 279.392 73.909 244.409 38.939 130.899 38.939 93.986 2.039 260.26 0 353.409 93.135" fill="url(#linear-gradient-3)"/>
        </g>
      </g>
    </g>
  </g>
</svg>
